<?xml version="1.0" encoding="utf-8"?>
<!-- Generator: Adobe Illustrator 25.0.1, SVG Export Plug-In . SVG Version: 6.00 Build 0)  -->
<svg version="1.0" id="Layer_1" xmlns="http://www.w3.org/2000/svg" xmlns:xlink="http://www.w3.org/1999/xlink" x="0px" y="0px"
	 viewBox="0 0 915.9 670.9" style="enable-background:new 0 0 915.9 670.9;" xml:space="preserve">
<style type="text/css">
	.st0{fill:#FFFFFF;}
</style>
<path d="M756.6,313.6h3.8l1.3-3.7h-5.1v-3.4h6.3l1.3-3.7h-12.9v16.9h5.2V313.6z"/>
<path d="M771.2,302.9h-5.2v16.9h5.2V302.9z"/>
<path d="M780,313.6h3.8l1.3-3.7H780v-3.4h6.3l1.3-3.7h-12.9v16.9h5.2V313.6z"/>
<path d="M790.2,319.7l0.6-2.3h5.9l0.7,2.3h5.3l-6.1-16.9h-5.5l-6.1,16.9L790.2,319.7z M793.8,307.2l2.1,7h-4.1L793.8,307.2z"/>
<path d="M800.9,307.2c0.2,0.2,0.5,0.4,0.8,0.5c0.3,0.1,0.7,0.2,1,0.2c0.3,0,0.7-0.1,1-0.2c0.6-0.3,1.1-0.7,1.4-1.4
	c0.1-0.3,0.2-0.7,0.2-1c0-0.3-0.1-0.7-0.2-1c-0.1-0.3-0.3-0.6-0.5-0.8c-0.2-0.2-0.5-0.4-0.8-0.5c-0.3-0.1-0.7-0.2-1-0.2
	c-0.3,0-0.7,0.1-1,0.2c-0.3,0.1-0.6,0.3-0.8,0.5c-0.2,0.2-0.4,0.5-0.5,0.8c-0.1,0.3-0.2,0.7-0.2,1c0,0.3,0.1,0.7,0.2,1
	C800.5,306.7,800.7,306.9,800.9,307.2z M800.9,304.6c0.1-0.2,0.2-0.4,0.4-0.6c0.2-0.2,0.4-0.3,0.6-0.4c0.2-0.1,0.5-0.1,0.8-0.1
	c0.3,0,0.5,0,0.8,0.1c0.2,0.1,0.4,0.2,0.6,0.4c0.2,0.2,0.3,0.4,0.4,0.6c0.1,0.3,0.1,0.5,0.1,0.8c0,0.5-0.2,1.1-0.5,1.5
	c-0.2,0.2-0.4,0.3-0.6,0.4c-0.5,0.2-1,0.2-1.5,0c-0.2-0.1-0.4-0.2-0.6-0.4c-0.2-0.2-0.3-0.4-0.4-0.6c-0.1-0.3-0.1-0.5-0.1-0.8
	C800.8,305.1,800.8,304.8,800.9,304.6z"/>
<path d="M802.2,305.6h0.3l0.8,1.2h0.5l-0.8-1.2c0.2,0,0.4-0.1,0.5-0.2c0.1-0.1,0.2-0.3,0.2-0.5c0-0.2-0.1-0.5-0.3-0.6
	c-0.2-0.1-0.5-0.2-0.8-0.2h-1.1v2.9h0.5V305.6z M802.2,304.4h0.5c0.1,0,0.1,0,0.2,0c0.1,0,0.1,0,0.2,0.1c0.1,0,0.1,0.1,0.1,0.1
	c0,0.1,0.1,0.1,0.1,0.2c0,0.1,0,0.1,0,0.2c0,0-0.1,0.1-0.1,0.1l-0.2,0.1h-0.2h-0.5L802.2,304.4L802.2,304.4z"/>
<path d="M756.9,349.5c0.3,0.3,0.6,0.5,0.9,0.6c0.4,0.1,0.8,0.2,1.3,0.2c0.4,0,0.8-0.1,1.2-0.2c0.4-0.1,0.7-0.3,0.9-0.6
	c0.3-0.3,0.4-0.6,0.6-1c0.1-0.4,0.2-0.8,0.2-1.3c0-0.4-0.1-0.9-0.2-1.3c-0.1-0.4-0.3-0.7-0.6-1c-0.3-0.3-0.6-0.5-0.9-0.6
	c-0.4-0.2-0.8-0.2-1.3-0.2c-0.4,0-0.9,0.1-1.3,0.2c-0.3,0.1-0.7,0.3-0.9,0.6c-0.3,0.3-0.4,0.6-0.6,1c-0.2,0.8-0.2,1.7,0,2.5
	C756.5,348.9,756.7,349.2,756.9,349.5z M757.9,346.6c0-0.2,0.1-0.4,0.2-0.6c0.1-0.2,0.2-0.3,0.4-0.4c0.2-0.1,0.4-0.2,0.6-0.1
	c0.2,0,0.4,0,0.6,0.1c0.2,0.1,0.3,0.2,0.4,0.4c0.1,0.2,0.2,0.4,0.2,0.6c0.1,0.5,0.1,1,0,1.4c0,0.2-0.1,0.4-0.2,0.6
	c-0.1,0.2-0.2,0.3-0.4,0.4c-0.2,0.1-0.4,0.2-0.6,0.2c-0.2,0-0.4,0-0.6-0.2c-0.2-0.1-0.3-0.3-0.4-0.4c-0.1-0.2-0.2-0.4-0.2-0.6
	c-0.1-0.2-0.1-0.5-0.1-0.7C757.9,347.1,757.9,346.8,757.9,346.6z"/>
<path d="M764.9,347.9h2.2v-1.1h-2.2v-1.3h2.3v-1.1h-3.9v5.9h1.6V347.9z"/>
<path d="M770,347.9h2.3v-1.1H770v-1.3h2.4v-1.1h-3.9v5.9h1.6V347.9z"/>
<path d="M775.2,344.4h-1.6v5.9h1.6V344.4z"/>
<path d="M777.7,349.7c0.3,0.2,0.7,0.4,1.1,0.5c0.4,0.1,0.8,0.2,1.2,0.2c0.3,0,0.7,0,1-0.1c0.3,0,0.5-0.1,0.8-0.2l-0.1-1.2l-0.7,0.2
	c-0.3,0.1-0.5,0.1-0.8,0.1c-0.3,0-0.5,0-0.8-0.1c-0.2-0.1-0.4-0.2-0.6-0.4c-0.4-0.4-0.6-0.8-0.5-1.4c0-0.3,0-0.5,0.1-0.8
	c0.1-0.2,0.2-0.4,0.4-0.6c0.2-0.2,0.4-0.3,0.6-0.4c0.2-0.1,0.5-0.1,0.8-0.1c0.3,0,0.5,0,0.8,0.1c0.3,0.1,0.5,0.2,0.8,0.3l0.1-1.3
	c-0.3-0.1-0.6-0.2-0.8-0.2c-0.3-0.1-0.6-0.1-0.9-0.1c-0.5,0-0.9,0.1-1.3,0.2c-0.4,0.1-0.8,0.3-1.1,0.6c-0.3,0.3-0.5,0.6-0.7,1
	c-0.2,0.4-0.2,0.9-0.2,1.3c0,0.5,0.1,1,0.3,1.4C777,349.1,777.3,349.4,777.7,349.7z"/>
<path d="M784.5,344.4h-1.5v5.9h1.6L784.5,344.4z"/>
<path d="M787.6,349h2.2l0.5,1.3h1.7l-2.3-5.8h-1.9l-2.2,5.9h1.6L787.6,349z M788.8,345.6l0.7,2.3h-1.5L788.8,345.6z"/>
<path d="M797,349.1h-2.4v-4.7H793v5.9h4L797,349.1z"/>
<path d="M760.2,359.1h-2.4v-4.7h-1.6v5.9h4L760.2,359.1z"/>
<path d="M762.9,354.3h-1.6v5.9h1.6V354.3z"/>
<path d="M765.3,355c-0.3,0.3-0.5,0.6-0.7,1c-0.2,0.4-0.3,0.9-0.2,1.3c0,0.5,0.1,1,0.3,1.4c0.2,0.4,0.5,0.7,0.8,0.9
	c0.3,0.2,0.7,0.4,1.1,0.5c0.4,0.1,0.8,0.2,1.2,0.2c0.3,0,0.7,0,1-0.1c0.3,0,0.5-0.1,0.8-0.2l-0.1-1.2c-0.2,0.1-0.5,0.2-0.7,0.2
	c-0.3,0.1-0.5,0.1-0.8,0.1c-0.3,0-0.5,0-0.8-0.1c-0.2-0.1-0.4-0.2-0.6-0.4c-0.2-0.2-0.3-0.4-0.4-0.6c-0.1-0.2-0.1-0.5-0.1-0.8
	c0-0.3,0-0.5,0.1-0.8c0.1-0.2,0.2-0.4,0.4-0.6c0.2-0.2,0.4-0.3,0.6-0.4c0.2-0.1,0.5-0.1,0.8-0.1c0.3,0,0.5,0,0.8,0.1
	c0.3,0.1,0.5,0.2,0.8,0.3l0.1-1.3c-0.3-0.1-0.6-0.2-0.8-0.2c-0.3-0.1-0.6-0.1-0.9-0.1c-0.5,0-0.9,0.1-1.3,0.2
	C765.9,354.5,765.6,354.7,765.3,355z"/>
<path d="M772.1,357.8h2.4v-1.1h-2.4v-1.2h2.6v-1.1h-4.1v5.9h4.2v-1.1h-2.7V357.8z"/>
<path d="M777.5,356.2L777.5,356.2l2,4h2v-5.9h-1.4v4l-2-4h-2v5.9h1.4L777.5,356.2z"/>
<path d="M783.6,357.4c0.2,0.1,0.4,0.2,0.7,0.3c0.2,0.1,0.5,0.1,0.7,0.2c0.2,0.1,0.4,0.1,0.5,0.2c0.1,0.1,0.2,0.3,0.2,0.4
	c0,0.1,0,0.2-0.1,0.3c-0.1,0.1-0.1,0.1-0.2,0.2c-0.1,0-0.2,0.1-0.3,0.1c-0.1,0-0.2,0-0.4,0c-0.3,0-0.6,0-0.9-0.1
	c-0.2-0.1-0.5-0.2-0.7-0.3l-0.2,1.3c0.3,0.1,0.6,0.1,0.9,0.2c0.3,0,0.6,0.1,0.9,0.1c0.3,0,0.7,0,1-0.1c0.3-0.1,0.6-0.2,0.8-0.3
	c0.2-0.1,0.4-0.3,0.6-0.6c0.2-0.3,0.2-0.7,0.2-1c0-0.3-0.1-0.6-0.2-0.9c-0.1-0.2-0.3-0.4-0.5-0.5c-0.2-0.1-0.4-0.2-0.7-0.3
	c-0.2-0.1-0.5-0.1-0.7-0.2c-0.2-0.1-0.3-0.1-0.5-0.2c-0.1-0.1-0.2-0.2-0.2-0.4c0-0.1,0-0.2,0.1-0.3c0.1-0.1,0.2-0.1,0.3-0.2
	c0.1,0,0.2-0.1,0.3-0.1h0.3c0.2,0,0.4,0,0.7,0.1c0.2,0,0.4,0.1,0.6,0.2l0-1.2c-0.2-0.1-0.5-0.1-0.7-0.2c-0.3,0-0.6-0.1-0.8-0.1
	c-0.3,0-0.6,0-0.9,0.1c-0.3,0-0.6,0.1-0.8,0.3c-0.2,0.1-0.4,0.3-0.6,0.5c-0.2,0.3-0.3,0.6-0.2,0.9c0,0.3,0.1,0.6,0.2,0.9
	C783.2,357.1,783.4,357.3,783.6,357.4z"/>
<path d="M792.7,355.4v-1.1h-4.1v5.9h4.2v-1.1h-2.7v-1.3h2.4v-1.1h-2.4v-1.2H792.7z"/>
<path d="M794.2,354.3v5.9h2.1c0.5,0,0.9-0.1,1.4-0.2c0.4-0.1,0.8-0.3,1.1-0.5c0.3-0.2,0.6-0.6,0.7-0.9c0.2-0.4,0.3-0.9,0.3-1.4
	c0-0.5-0.1-1-0.3-1.4c-0.2-0.4-0.4-0.7-0.7-0.9c-0.3-0.2-0.7-0.4-1.1-0.5c-0.5-0.1-0.9-0.1-1.4-0.1L794.2,354.3z M797.7,356
	c0.3,0.4,0.5,0.8,0.5,1.3c0,0.5-0.1,1-0.5,1.3c-0.4,0.3-0.9,0.5-1.3,0.4h-0.6v-3.5h0.6C796.9,355.5,797.3,355.6,797.7,356z"/>
<path d="M757.8,368.1h0.6c0.6,0,1.2-0.1,1.7-0.5c0.8-0.7,0.8-1.9,0.1-2.7c0,0-0.1-0.1-0.1-0.1c-0.6-0.4-1.3-0.5-2-0.5h-1.9v5.9h1.6
	L757.8,368.1z M757.8,365.4h0.4c0.1,0,0.3,0,0.4,0c0.1,0,0.2,0.1,0.3,0.1c0.1,0.1,0.2,0.1,0.2,0.2c0.1,0.1,0.1,0.2,0.1,0.4
	c0,0.1,0,0.3-0.1,0.4c0,0.1-0.1,0.2-0.2,0.2c-0.1,0.1-0.2,0.1-0.3,0.1c-0.1,0-0.3,0-0.4,0h-0.4V365.4z"/>
<path d="M766,368.1c0-0.1-0.1-0.3-0.2-0.4c-0.1-0.1-0.1-0.2-0.2-0.3c-0.1-0.1-0.2-0.1-0.3-0.2l0,0c0.3-0.1,0.6-0.2,0.8-0.5
	c0.2-0.3,0.3-0.6,0.3-1c0-0.2,0-0.4-0.1-0.6c-0.1-0.2-0.2-0.3-0.4-0.5c-0.2-0.1-0.4-0.2-0.6-0.3c-0.2-0.1-0.5-0.1-0.7-0.1h-2.8v5.9
	h1.6v-2.3h0.3c0.1,0,0.2,0,0.4,0.1c0.1,0,0.2,0.1,0.3,0.2c0.1,0.1,0.2,0.2,0.2,0.4c0.1,0.2,0.1,0.4,0.2,0.6l0.3,1.1h1.7l-0.6-1.6
	C766.1,368.4,766.1,368.2,766,368.1z M764.8,366.5c-0.1,0.1-0.2,0.2-0.3,0.2c-0.1,0-0.2,0.1-0.4,0.1h-0.4h-0.4v-1.3h0.4
	c0.1,0,0.3,0,0.4,0c0.1,0,0.3,0,0.4,0.1c0.1,0,0.2,0.1,0.2,0.2c0.1,0.1,0.1,0.2,0.1,0.3C764.9,366.2,764.9,366.3,764.8,366.5
	L764.8,366.5z"/>
<path d="M772.8,365c-0.3-0.3-0.6-0.5-0.9-0.6c-0.8-0.3-1.7-0.3-2.5,0c-0.3,0.1-0.7,0.3-0.9,0.6c-0.3,0.3-0.4,0.6-0.6,1
	c-0.1,0.4-0.2,0.8-0.2,1.3c0,0.4,0.1,0.8,0.2,1.2c0.1,0.4,0.3,0.7,0.6,1c0.3,0.3,0.6,0.5,0.9,0.6c0.4,0.2,0.8,0.2,1.3,0.2
	c0.4,0,0.9-0.1,1.3-0.2c0.7-0.3,1.3-0.8,1.5-1.6c0.1-0.4,0.2-0.8,0.2-1.2c0-0.4-0.1-0.9-0.2-1.3C773.2,365.6,773,365.3,772.8,365z
	 M771.9,367.9c0,0.2-0.1,0.4-0.2,0.6c-0.1,0.2-0.2,0.3-0.4,0.4c-0.4,0.2-0.8,0.2-1.2,0c-0.2-0.1-0.3-0.2-0.4-0.4
	c-0.1-0.2-0.2-0.4-0.2-0.6c-0.1-0.2-0.1-0.5-0.1-0.7c0-0.2,0-0.5,0.1-0.7c0-0.2,0.1-0.4,0.2-0.6c0.1-0.2,0.2-0.3,0.4-0.4
	c0.4-0.2,0.8-0.2,1.2,0c0.2,0.1,0.3,0.2,0.4,0.4c0.1,0.2,0.2,0.4,0.2,0.6c0.1,0.2,0.1,0.5,0.1,0.7
	C771.9,367.5,771.9,367.7,771.9,367.9L771.9,367.9z"/>
<path d="M779.5,364.9c-0.3-0.2-0.7-0.4-1.1-0.5c-0.5-0.1-0.9-0.1-1.4-0.1h-2.1v5.9h2.1c0.5,0,0.9-0.1,1.4-0.2
	c0.4-0.1,0.8-0.3,1.1-0.5c0.3-0.2,0.6-0.6,0.7-0.9c0.2-0.4,0.3-0.9,0.3-1.4c0-0.5-0.1-1-0.3-1.4C780,365.5,779.8,365.1,779.5,364.9z
	 M778.4,368.6c-0.4,0.3-0.9,0.5-1.3,0.4h-0.6v-3.6h0.6c0.5,0,1,0.1,1.3,0.4C779,366.7,779,367.8,778.4,368.6L778.4,368.6z"/>
<path d="M782.4,369.7c0.2,0.2,0.5,0.3,0.8,0.4c0.3,0.1,0.7,0.1,1,0.1c0.3,0,0.7,0,1-0.1c0.3-0.1,0.6-0.2,0.8-0.4
	c0.2-0.2,0.4-0.4,0.5-0.7c0.1-0.3,0.2-0.7,0.2-1v-3.6h-1.6v3.4c0,0.2,0,0.4,0,0.5c0,0.2-0.1,0.3-0.2,0.5c-0.1,0.1-0.2,0.2-0.3,0.3
	c-0.1,0.1-0.3,0.1-0.5,0.1c-0.2,0-0.3,0-0.5-0.1c-0.1-0.1-0.2-0.2-0.3-0.3c-0.1-0.1-0.1-0.3-0.2-0.5c0-0.2,0-0.4,0-0.5v-3.4h-1.6
	v3.6c0,0.3,0.1,0.7,0.2,1C782,369.3,782.2,369.5,782.4,369.7z"/>
<path d="M792.4,369c-0.3,0.1-0.5,0.1-0.8,0.1c-0.3,0-0.5,0-0.8-0.1c-0.2-0.1-0.4-0.2-0.6-0.4c-0.2-0.2-0.3-0.4-0.4-0.6
	c-0.1-0.2-0.1-0.5-0.1-0.8c0-0.3,0-0.5,0.1-0.8c0.1-0.2,0.2-0.4,0.4-0.6c0.2-0.2,0.4-0.3,0.6-0.4c0.2-0.1,0.5-0.2,0.8-0.1
	c0.3,0,0.5,0,0.8,0.1c0.3,0.1,0.5,0.2,0.8,0.3l0.1-1.3c-0.3-0.1-0.6-0.2-0.8-0.2c-0.3-0.1-0.6-0.1-0.9-0.1c-0.5,0-0.9,0.1-1.3,0.2
	c-0.4,0.1-0.8,0.3-1.1,0.6c-0.3,0.3-0.5,0.6-0.7,1c-0.2,0.4-0.2,0.9-0.2,1.3c0,0.5,0.1,1,0.3,1.4c0.2,0.4,0.5,0.7,0.8,0.9
	c0.3,0.2,0.7,0.4,1.1,0.5c0.4,0.1,0.8,0.2,1.2,0.2c0.3,0,0.7,0,1-0.1c0.3,0,0.5-0.1,0.8-0.2l-0.1-1.2
	C792.9,368.9,792.6,369,792.4,369z"/>
<path d="M793.9,365.4h1.4v4.7h1.6v-4.7h1.5v-1.2h-4.5V365.4z"/>
<path d="M740.5,288.9V382H815v-93.1H740.5z M814.2,381.2h-72.8v-45.3h72.8V381.2z M814.2,335h-72.8v-45.3h72.8V335z"/>
<path d="M334.1,309.3h43.7l3.5-20.4h-69.4L295.5,382h25.9l6.1-35.3h35.4l3.5-20.4h-35.2L334.1,309.3z"/>
<path d="M390.4,288.9L373.9,382h25.7l16.5-93.1L390.4,288.9z"/>
<path d="M479.6,326.4h-35.2l3-17.1h43.8l3.5-20.4h-69.5L408.7,382h25.9l6.1-35.3h35.4L479.6,326.4z"/>
<path d="M516.1,288.8L467.5,382h24.8l7.8-16.3h32.2l2.1,16.3H560l-15-93.2H516.1z M509.4,346.2l15.7-33.5h0.5l4.3,33.5H509.4z"/>
<path d="M610.5,361l8.8-7.9c12.5-11.2,31.5-25.5,31.5-44c0-16.6-13.6-22.6-28.4-22.6c-18.8,0-35,8.3-38.6,27.4
	c-0.2,0.4-0.8,4.8-0.9,5.1h23.4c1.1-6.6,3-13.6,11.4-13.6c4.5,0,8.2,2.4,8.2,7.3c0,8.7-11,18.8-17.8,25.4l-31.2,29.7l-2.5,14.3h65.1
	l3.6-20.3h-32.6L610.5,361z"/>
<path d="M692.5,353c12.5-11.2,31.5-25.5,31.5-44c0-16.6-13.6-22.6-28.4-22.6c-18.8,0-35,8.3-38.6,27.4c-0.2,0.4-0.8,4.8-0.9,5.1
	h23.4c1.1-6.6,3-13.6,11.4-13.6c4.5,0,8.2,2.4,8.2,7.3c0,8.7-11,18.8-17.8,25.4L650,367.7l-2.5,14.3h65.1l3.6-20.3h-32.6l0.1-0.7
	L692.5,353z"/>
<path d="M191.4,426c50,0,90.6-40.6,90.5-90.6s-40.6-90.6-90.6-90.5c-50,0-90.5,40.5-90.5,90.6C100.9,385.5,141.4,426,191.4,426
	C191.4,426,191.4,426,191.4,426z"/>
<path class="st0" d="M250.9,350h2.3v0.4h-0.9v2h-0.4v-2H251L250.9,350L250.9,350z M142.9,359.1h-5.2c-1.2,0-1.7-0.6-1.7-1.9v-2.1
	c0-0.5,0.1-1.1,0.5-1.5c0.3-0.4,0.8-0.6,1.3-0.6h4.1c0.9-0.1,1.7,0.5,1.9,1.4l0.6,2h3.8v-2.2c0.1-2.8-2.1-5-4.9-5.1
	c-0.1,0-0.1,0-0.2,0h-6.1c-2.8,0-5.2,2.3-5.2,5.1c0,0,0,0,0,0v3.5c0,2.8,2.3,5.2,5.1,5.2c0,0,0,0,0.1,0h5.2c1.1,0,1.7,0.7,1.7,2v2.7
	c0,0.5-0.2,1-0.5,1.4c-0.3,0.4-0.8,0.6-1.3,0.6H138c-0.9,0.1-1.7-0.5-1.9-1.4l-0.6-2.2h-3.8v2.4c-0.1,2.8,2.1,5.1,4.9,5.1
	c0.1,0,0.2,0,0.2,0h6.1c2.8,0,5.2-2.3,5.2-5.2c0,0,0-0.1,0-0.1v-4.1c0-1.4-0.5-2.7-1.5-3.7C145.7,359.6,144.3,359.1,142.9,359.1z
	 M167.9,350.7c1,0.9,1.5,2.3,1.5,3.6v5.1c0,1.4-0.5,2.7-1.5,3.7c-1,1-2.3,1.5-3.7,1.5h-6.7v9h-4.3v-24.5h11.1
	C165.7,349.2,167,349.7,167.9,350.7L167.9,350.7z M165.1,355.2c0-0.5-0.2-1-0.5-1.4c-0.3-0.4-0.8-0.6-1.2-0.6h-5.9v7.6h5.9
	c0.5,0,0.9-0.2,1.2-0.6c0.3-0.4,0.5-0.9,0.5-1.4L165.1,355.2z M208.1,363.6l4.3,10.1h-4.5l-4-9.6h-4.1v9.6h-4.3v-24.5h10.8
	c1.4,0,2.7,0.5,3.6,1.5c1,0.9,1.5,2.3,1.5,3.6v4.3c0,1.1-0.3,2.1-0.9,3C209.9,362.5,209.1,363.1,208.1,363.6L208.1,363.6z
	 M207.1,355.2c0-0.5-0.1-1-0.5-1.4c-0.3-0.4-0.8-0.6-1.2-0.6h-5.6v7h5.6c0.5,0,0.9-0.2,1.2-0.5c0.3-0.4,0.5-0.9,0.5-1.4V355.2z
	 M214.2,353.2h6.2v20.5h4.3v-20.5h6.3v-4h-16.8L214.2,353.2L214.2,353.2z M245.4,359.2h-5.2c-1.1,0-1.7-0.6-1.7-1.9v-2.1
	c0-0.5,0.1-1,0.5-1.5c0.3-0.4,0.8-0.6,1.3-0.6h4.1c0.9-0.1,1.7,0.5,1.9,1.4l0.6,2h3.8v-2.2c0.1-2.8-2.1-5-4.9-5.1
	c-0.1,0-0.2,0-0.2,0h-6c-2.9,0-5.2,2.3-5.2,5.2v3.5c0,1.4,0.5,2.7,1.5,3.7c1,1,2.3,1.5,3.7,1.5h5.2c1.2,0,1.7,0.7,1.7,2v2.7
	c0,0.5-0.1,1-0.5,1.4c-0.3,0.4-0.8,0.6-1.3,0.6h-4.1c-0.9,0.1-1.7-0.5-1.9-1.4l-0.6-2.2h-3.8v2.4c0,1.4,0.5,2.7,1.5,3.7
	c1,1,2.3,1.5,3.7,1.5h6.1c1.4,0,2.7-0.5,3.7-1.5c1-1,1.5-2.3,1.5-3.7v-4.1C250.6,361.5,248.3,359.2,245.4,359.2L245.4,359.2z
	 M256.1,350.1l-0.9,1.4l-0.9-1.4h-0.4v2.4h0.4V351c0-0.1,0-0.2,0-0.3c0,0.1,0.1,0.2,0.1,0.2l0.8,1.2h0.1l0.8-1.1
	c0.1-0.1,0.1-0.2,0.1-0.3c0,0.1,0,0.2,0,0.3v1.5h0.4v-2.4H256.1z M188.6,350.8c1,0.9,1.6,2.3,1.5,3.6v14c0,1.4-0.5,2.8-1.5,3.7
	c-1,1-2.3,1.5-3.7,1.5h-5.8c-1.4,0-2.7-0.5-3.7-1.5c-1-1-1.6-2.3-1.5-3.7v-14.1c0-2.9,2.4-5.2,5.2-5.1h5.8
	C186.4,349.2,187.7,349.7,188.6,350.8L188.6,350.8z M185.9,355.1c0-0.5-0.2-1-0.5-1.4c-0.3-0.4-0.8-0.6-1.2-0.6H180
	c-0.5,0-1,0.2-1.3,0.6c-0.3,0.4-0.5,0.9-0.5,1.4v12.5c0,0.5,0.1,1,0.5,1.4c0.3,0.4,0.8,0.6,1.3,0.6h4.2c0.5,0,1-0.2,1.2-0.6
	c0.3-0.4,0.5-0.9,0.5-1.4L185.9,355.1z M204.2,286.8h-46.6l-7.1,11.3H197L204.2,286.8z M221.8,320.7h-7l-7.1,11.4h21.3l7.1,11.3
	h13.6l-36-57l-28.9,45.7h-31.7l7.2-11.3H180l7.2-11.3h-43.8l-7.1,11.3h10.5l-14.3,22.7h59l22.4-35.5L221.8,320.7z"/>
</svg>
